<?xml version="1.0" encoding="UTF-8" standalone="no"?>
<!-- Created with Inkscape (http://www.inkscape.org/) -->

<svg
   width="52"
   height="52"
   viewBox="0 0 13.758333 13.758333"
   version="1.1"
   id="svg5"
   xmlns:xlink="http://www.w3.org/1999/xlink"
   xmlns="http://www.w3.org/2000/svg">
  <defs
     id="defs2">
    <linearGradient
       id="linearGradient27792">
      <stop
         style="stop-color:#000000;stop-opacity:1"
         offset="0"
         id="stop27788" />
      <stop
         style="stop-color:#01579b;stop-opacity:0;"
         offset="1"
         id="stop27790" />
    </linearGradient>
    <linearGradient
       xlink:href="#linearGradient27792"
       id="linearGradient27794"
       x1="66.590858"
       y1="50.650185"
       x2="21.082819"
       y2="16.069221"
       gradientUnits="userSpaceOnUse" />
  </defs>
  <g
     id="layer1">
    <rect
       style="fill:#01579b;fill-opacity:1;stroke-width:0.264583"
       id="rect31"
       width="13.229166"
       height="13.229166"
       x="0.26458332"
       y="0.26458332"
       rx="1.3229166"
       ry="1.3229166" />
    <path
       id="rect31-2"
       style="fill:url(#linearGradient27794);fill-opacity:1;stroke-width:0.999999"
       d="M 43.138672 1 C 42.461588 5.1846363 41.09787 12.864999 39.548828 17.201172 C 37.16353 23.878245 34.036909 30.430419 29.765625 36.089844 C 25.59603 41.614533 15.157891 50.050759 13.974609 51 L 46 51 C 48.77 51 51 48.77 51 46 L 51 6 C 51 3.23 48.77 1 46 1 L 43.138672 1 z "
       transform="scale(0.26458333)" />
    <g
       aria-label="H"
       id="text2994"
       style="font-weight:bold;font-size:10.5833px;line-height:1.25;font-family:Dubai;-inkscape-font-specification:'Dubai Bold';letter-spacing:0px;word-spacing:0px;stroke-width:0.264583">
      <path
         d="M 5.7567423,1.575464 H 7.2595709 V 8.4334421 H 5.7567423 V 5.5865345 H 2.6558355 V 8.4334421 H 1.153007 V 1.575464 h 1.5028285 v 2.7410746 h 3.1009068 z"
         style="fill:#ffffff"
         id="path28922" />
    </g>
    <g
       aria-label="S"
       id="text2994-3"
       style="font-weight:bold;font-size:10.5833px;line-height:1.25;font-family:Dubai;-inkscape-font-specification:'Dubai Bold';letter-spacing:0px;word-spacing:0px;stroke-width:0.264583">
      <path
         d="m 10.319268,12.769163 q -1.5874952,0 -2.6987417,-0.825498 l 0.6773312,-1.047746 q 0.9842468,0.624414 1.9261605,0.624414 0.603248,0 0.941914,-0.190499 0.349249,-0.190499 0.349249,-0.571498 0,-0.232833 -0.116417,-0.380999 -0.105833,-0.15875 -0.391582,-0.296332 -0.275166,-0.1481666 -0.83608,-0.3704159 L 9.9276856,9.6153394 Q 9.2503544,9.3507569 8.8376058,9.107341 8.4248571,8.8639251 8.1814412,8.4829263 7.9380253,8.1019275 7.9380253,7.5198461 q 0,-0.6455813 0.3704155,-1.0689133 0.3704155,-0.4339153 0.9524969,-0.634998 0.5820815,-0.2010827 1.2382463,-0.2010827 0.592665,0 1.217079,0.2010827 0.634998,0.1904994 1.206496,0.5714982 L 12.234845,7.4245964 Q 11.726847,7.1176807 11.335264,6.9800978 10.943682,6.8425149 10.488601,6.8425149 q -0.5079989,0 -0.7725814,0.1693328 -0.2539992,0.1693328 -0.2539992,0.4550819 0,0.179916 0.105833,0.3280822 0.105833,0.1375829 0.3809988,0.2857491 0.2751658,0.1375829 0.7937478,0.3280823 l 0.232832,0.084666 q 0.677331,0.2539992 1.09008,0.4762485 0.423332,0.2222493 0.709081,0.634998 0.285749,0.4127489 0.285749,1.0689129 0,0.687915 -0.359832,1.164163 -0.359832,0.465665 -0.984247,0.698498 -0.613831,0.232833 -1.396995,0.232833 z"
         style="fill:#ffffff"
         id="path28784" />
    </g>
  </g>
</svg>
